<svg width="19" height="24" viewBox="0 0 19 24" fill="none" xmlns="http://www.w3.org/2000/svg">
<path d="M9.17338 7.2221C8.29738 7.2221 6.94138 6.2261 5.51338 6.2621C3.62938 6.2861 1.90138 7.3541 0.929378 9.0461C-1.02662 12.4421 0.425378 17.4581 2.33338 20.2181C3.26938 21.5621 4.37338 23.0741 5.83738 23.0261C7.24138 22.9661 7.76938 22.1141 9.47338 22.1141C11.1654 22.1141 11.6454 23.0261 13.1334 22.9901C14.6454 22.9661 15.6054 21.6221 16.5294 20.2661C17.5974 18.7061 18.0414 17.1941 18.0654 17.1101C18.0294 17.0981 15.1254 15.9821 15.0894 12.6221C15.0654 9.8141 17.3814 8.4701 17.4894 8.4101C16.1694 6.4781 14.1414 6.2621 13.4334 6.2141C11.5854 6.0701 10.0374 7.2221 9.17338 7.2221ZM12.2934 4.3901C13.0734 3.4541 13.5894 2.1461 13.4454 0.850098C12.3294 0.898098 10.9854 1.5941 10.1814 2.5301C9.46138 3.3581 8.83738 4.6901 9.00538 5.9621C10.2414 6.0581 11.5134 5.3261 12.2934 4.3901Z" fill="#00144A"/>
</svg>
