<svg width="20" height="20" viewBox="0 0 20 20" fill="none" xmlns="http://www.w3.org/2000/svg">
<mask id="mask0_819_726" style="mask-type:luminance" maskUnits="userSpaceOnUse" x="9" y="8" width="11" height="10">
<path fill-rule="evenodd" clip-rule="evenodd" d="M19.5464 10.2281C19.5464 9.52095 19.483 8.84095 19.365 8.18823H9.97266V12.0458H15.3398C15.1086 13.2924 14.4059 14.3486 13.3498 15.0557V17.558H16.5727C18.4585 15.8218 19.5464 13.2652 19.5464 10.2281Z" fill="white"/>
</mask>
<g mask="url(#mask0_819_726)">
<path fill-rule="evenodd" clip-rule="evenodd" d="M9.97266 17.558H19.5464V8.18823H9.97266V17.558Z" fill="#5070A8"/>
</g>
<mask id="mask1_819_726" style="mask-type:luminance" maskUnits="userSpaceOnUse" x="1" y="11" width="16" height="9">
<path fill-rule="evenodd" clip-rule="evenodd" d="M9.97255 19.9741C12.6652 19.9741 14.9226 19.0811 16.5726 17.558L13.3497 15.0558C12.4566 15.6542 11.3143 16.0077 9.97255 16.0077C7.37512 16.0077 5.17658 14.2534 4.39243 11.8962H1.06067V14.4801C2.70162 17.7394 6.07411 19.9741 9.97255 19.9741Z" fill="white"/>
</mask>
<g mask="url(#mask1_819_726)">
<path fill-rule="evenodd" clip-rule="evenodd" d="M1.06067 19.9741H16.5726V11.8962H1.06067V19.9741Z" fill="#2F9E4F"/>
</g>
<mask id="mask2_819_726" style="mask-type:luminance" maskUnits="userSpaceOnUse" x="0" y="5" width="5" height="10">
<path fill-rule="evenodd" clip-rule="evenodd" d="M4.39249 11.8963C4.193 11.298 4.07966 10.6588 4.07966 10.0015C4.07966 9.34424 4.193 8.70508 4.39249 8.1067V5.52295H1.06073C0.385322 6.86922 0 8.3923 0 10.0015C0 11.6107 0.385322 13.1339 1.06073 14.4801L4.39249 11.8963Z" fill="white"/>
</mask>
<g mask="url(#mask2_819_726)">
<path fill-rule="evenodd" clip-rule="evenodd" d="M0 14.4801H4.39249V5.52295H0V14.4801Z" fill="#EFB529"/>
</g>
<mask id="mask3_819_726" style="mask-type:luminance" maskUnits="userSpaceOnUse" x="1" y="0" width="16" height="9">
<path fill-rule="evenodd" clip-rule="evenodd" d="M9.97255 3.9952C11.4367 3.9952 12.7513 4.49839 13.7848 5.48657L16.6452 2.62623C14.918 1.01704 12.6606 0.0288086 9.97255 0.0288086C6.07411 0.0288086 2.70162 2.2636 1.06067 5.52287L4.39243 8.10662C5.17658 5.74948 7.37512 3.9952 9.97255 3.9952Z" fill="white"/>
</mask>
<g mask="url(#mask3_819_726)">
<path fill-rule="evenodd" clip-rule="evenodd" d="M1.06067 8.10662H16.6452V0.0288086H1.06067V8.10662Z" fill="#D53E36"/>
</g>
</svg>
